<?xml version="1.0" encoding="UTF-8"?>
<svg id="Layer_2" xmlns="http://www.w3.org/2000/svg" xmlns:xlink="http://www.w3.org/1999/xlink" viewBox="0 0 511 511">
  <defs>
    <style>
      .cls-1 {
        fill: none;
      }

      .cls-2 {
        fill: #4fc94f;
      }

      .cls-3 {
        fill: url(#radial-gradient);
      }

      .cls-4 {
        fill: #fff;
      }

      .cls-5 {
        fill: #60ea60;
      }

      .cls-6 {
        clip-path: url(#clippath);
      }
    </style>
    <clipPath id="clippath">
      <path class="cls-1" d="M325.18,139.19c-4.36-3.27-9.26-5.45-15.79-5.45-19.07,0-47.4-5.44-82.25,12.53-14.71,8.18-26.14,20.16-33.78,35.41-8.17,14.71-12.53,32.67-12.53,53.38v121.19c0,6.54,2.18,11.45,6.54,15.8,4.35,3.82,9.26,6,14.7,6,7.08,0,12.53-2.18,16.34-6,3.82-4.35,6-9.26,6-15.8v-125.55c0-11.98,2.18-21.78,6.54-30.51,4.36-8.17,10.9-14.71,18.52-20.15,18.52-11.45,49.57-7.09,59.92-7.09,6.53,0,11.44-1.64,15.79-5.44,3.81-3.82,5.99-8.72,5.99-14.16s-2.18-10.35-5.99-14.16Z"/>
    </clipPath>
    <radialGradient id="radial-gradient" cx="241.75" cy="344.63" fx="241.75" fy="344.63" r="120.77" gradientUnits="userSpaceOnUse">
      <stop offset="0" stop-color="#221f20"/>
      <stop offset=".2" stop-color="#221f20" stop-opacity=".71"/>
      <stop offset=".66" stop-color="#221f20" stop-opacity=".19"/>
      <stop offset="1" stop-color="#221f20" stop-opacity="0"/>
    </radialGradient>
  </defs>
  <g id="Layer_1-2" data-name="Layer_1">
    <rect class="cls-4" y="0" width="511" height="511" rx="112.07" ry="112.07"/>
    <g>
      <path class="cls-2" d="M325.18,139.19c-4.36-3.27-9.26-5.45-15.79-5.45-19.07,0-47.4-5.44-82.25,12.53-14.71,8.18-26.14,20.16-33.78,35.41-8.17,14.71-12.53,32.67-12.53,53.38v121.19c0,6.54,2.18,11.45,6.54,15.8,4.35,3.82,9.26,6,14.7,6,7.08,0,12.53-2.18,16.34-6,3.82-4.35,6-9.26,6-15.8v-125.55c0-11.98,2.18-21.78,6.54-30.51,4.36-8.17,10.9-14.71,18.52-20.15,18.52-11.45,49.57-7.09,59.92-7.09,6.53,0,11.44-1.64,15.79-5.44,3.81-3.82,5.99-8.72,5.99-14.16s-2.18-10.35-5.99-14.16Z"/>
      <g class="cls-6">
        <circle class="cls-3" cx="241.75" cy="344.63" r="120.77"/>
      </g>
      <path class="cls-5" d="M325.18,265.28c-4.36-3.82-9.26-5.45-15.79-5.45-19.07,0-47.4-6-82.25,12.53-1.09.55-2.18,1.09-2.73,1.64-13.62,7.62-23.96,19.6-31.05,33.22-8.17,15.25-12.53,32.69-12.53,53.39v-4.36c0,6.54,2.18,11.45,6.54,15.8,4.35,3.82,9.26,6,14.7,6,7.08,0,12.53-2.18,16.34-6,3.82-4.35,6-9.26,6-15.8h0c0-11.44,2.18-21.8,6.54-29.96,4.36-8.71,10.9-15.25,18.52-20.15,18.52-11.45,49.57-7.09,59.92-7.09,6.53,0,11.44-2.18,15.79-6,3.81-3.8,5.99-8.17,5.99-13.62,0-5.98-2.18-10.35-5.99-14.15Z"/>
    </g>
  </g>
</svg>